<?xml version="1.0" encoding="UTF-8"?>
<svg version="1.1" viewBox="0 0 2048 487" width="521" height="124" xmlns="http://www.w3.org/2000/svg">
<path transform="translate(222,5)" d="m0 0 5 2 2 4 3 1 8 11 4 8 2 8v16l-4 14-4 10-8 14-7 9 4-1 12-8 3-1 2-4 3-2 1 2-2 13-5 17-9 16-8 10-15 15-17 13-23 15-12 8-1 3 16-7 19-12 11-5 13-4 1 2-5 13-8 31-5 13-6 10-9 10-14 10-23 12-20 8-6 1v2l18-2 17-4 21-9 5-3h2l-3 10-7 14-11 12-11 8-17 8-21 7h-4v2l5-1h26l3-2h3l-2 4-9 10-11 10-14 9-15 7-21 6-5 1h-8l1-8 8-35 10-34 10-29 13-30 12-25 14-24 11-18 12-17 11-14 11-13 4-5h2l2-4 22-22h-1l-14 12-16 15-8 8-7 8-12 14-14 19-8 12-12 19-14 25-11 23-16 39-12 36-9 31-7 28-9 46-5 26-5 12-9 19h-2l2-21 6-43 8-39 4-15-1-6-9-12-7-12-7-19-4-21-1-7v-19l5 2 8 10 11 19 5 5 5 3-9-19-5-11-5-17-2-12v-18l3-15 6-15 9-14h3l3 9 2 16 1 22h3l3-15 2-40 4-11 7-10 11-13 7-10 8-13 3-6h3v11l-3 23 2 1 3-9 5-12 7-13 8-10 9-8 1 3-8 16-3 9-1 5v9l3-8 6-15 8-13 8-11 9-10 12-10 19-12 19-11 12-9 6-8 4-11z" fill="#F48A23"/>
<path transform="translate(1476,249)" d="m0 0h25l20 3 20 6 19 9 14 9 18 13 5 4h3l10-18 9-11 9-6 6-2 7-1h16l14 2 13 5 11 7 12 11 8 9 9 14 12 23 11 23 8 19 1 4v9l-6 9-9 4h-10l-10-4-7-8-8-16-13-30-11-19-9-10-10-5h-11l-7 3-3 2v36l5 22v10l-4 8-5 4-10 3-7-1-10-6-10-9-10-13-13-18-9-11-11-10-16-10-19-9-17-5-12-1-18 2-10 4 1 8 6 16 17 37 7 20 3 12v17l-4 10-6 5-10 4-6-1-8-7-11-15-9-15-11-20-6-15-8-33-7-14-8-13-4-10-1-4v-8l4-12 4-5 4-2h9l19 2 21-6z" fill="#37312F"/>
<path transform="translate(1009,226)" d="m0 0 13 1 12 6 6 7 1 2v9l-5 8-9 8-20 12-10 8-5 10v4l15 10 68 46 9 8 7 12 2 6v7l-7 11-8 7-4 1h-11l-9-4-23-15-26-16-19-12-14-10-15-12-8-6h-4l-15 23-1 2v19l-4 8-10 10h-10l-7-2-8-9-10-15-13-19-22-32-9-14-3-9v-14l3-8 7-8 6-2 15 4 12 6 12 11 6 8 5 11 3 10 3 3 13-12 9-11 9-10 9-11 14-14 19-13 18-12 10-7z" fill="#37312F"/>
<path transform="translate(1279,222)" d="m0 0h11l13 4 13 7 10 8 8 8 7 12 2 6v13l-5 10-4 3-3 1h-11l-9-4-8-7-2-5-2-12-1-1-9 1-12 6h-2l1 8 4 8 7 6 18 8 16 6 15 8 12 8 13 10 12 11 10 12 8 16 2 8v11l-4 13-6 9-7 7-17 10-20 11-7 5h-9l-16-3-15-6-12-7-13-11-7-10-5-13 1-6 9-8 2-1h13l14 7 8 6 9 3 9-1 16-8 5-5 1-4-5-6-14-11-12-7-40-17-13-8-10-9-6-8-8-16-3-11-1-7v-12l3-12 6-10 5-5 8-6 15-8z" fill="#37312F"/>
<path transform="translate(1818,238)" d="m0 0 10 1 14 4 15 8 10 8 5 5 9 10 8 16 3 13v16l-3 13-7 13-11 12-10 6-10 3 2 4 16 7 7 2 18 2 5 2 3 4 3 9 1 9-2 9-4 6-6 5-5 2h-19l-15-4-20-8-20-11-9-7-10-10-13-17-12-18-10-18-6-17-1-4v-9l3-6 6-5 10-5 3-4 7-17 11-12 13-10zm8 44-10 6-7 6-4 9 1 5 8 4 16 4h13l9-4 3-3 2-8v-7l-4-5-10-5-6-2z" fill="#37312F"/>
<path transform="translate(378,177)" d="m0 0h12l12 4 11 8 6 8 3 8v7l-3 8-5 4-7 1-8-3-8-7-11 1-18 6-19 10-14 10-12 11-7 10-4 11-1 9 2 16 5 13 7 13 11 12 11 8 19 10 23 9 19 6 9 2 28 1 9 2 6 5 5 10 1 4v11l-5 10-5 3h-16l-26-5-36-8-20-7-16-8-11-7-11-9-9-8-9-11-9-14-8-16-9-25-2-14 5-14 14-28 12-18 14-14 17-12 22-13 14-7z" fill="#37312F"/>
<path transform="translate(562,249)" d="m0 0h7l12 4 13 9 10 11 8 14 5 12 3 13v25l-4 13-5 9-9 10-9 6-13 5-12 2h-9l-14-2-15-5-16-8-11-8-9-8-8-11-5-10-2-8 1-13 5-11 7-11 10-11 8-6 6-3 5-1 17-1 8-2 9-10zm-4 45-5 5-5 7v2l-7-1-8-2h-12l-5 3-1 6 4 7 9 8 11 5 11 3h14l10-4 7-8 2-7v-8l-3-6-7-6-11-4z" fill="#37312F"/>
<path transform="translate(1959,228)" d="m0 0h6l9 5 7 8 6 12 12 35 4 7v2l26 5 7 3 5 6 4 8 3 12v6l-10 9-16 4h-5l11 29 6 21v11l-4 5-13 4-7 2-5-10-7-18-8-16-12-25-5-6-12 1-29 4h-12l-8-3-7-8-3-9v-7l4-8 8-6 10-4 32-8 4-3-5-17-8-21-1-4v-8l6-12z" fill="#37312F"/>
<path transform="translate(740,226)" d="m0 0 19 1 21 4 15 6 9 6 7 8 1 3v10l-5 9-5 5-7 2h-8l-33-6h-14l-6 1-1 4v16l4 17 8 18 8 17 4 16-1 9-3 7-6 4-3 1h-12l-8-7-9-10-14-21-13-22-6-10-12-2-10-6-1-5 9-11 3-7 2-10 3-3 17-6 6-10 8-16 7-6 19-5z" fill="#37312F"/>
<path transform="translate(1129,256)" d="m0 0 12 1 11 4 9 7 7 7 7 11 7 15 10 31 5 15 9 21 2 7v11l-4 8-7 8-7 5h-7l-9-4-5-5-5-8-9-25-5-12-9-15-14-21-9-16-4-13v-11l5-12 7-8z" fill="#37312F"/>
<path transform="translate(146,321)" d="m0 0" fill="#F48A23"/>
</svg>
